<svg xmlns="http://www.w3.org/2000/svg" xmlns:xlink="http://www.w3.org/1999/xlink"><defs><symbol viewBox="0 0 24 24" fill="none" id="calendar">
<path d="M18.2222 19.2H5.77778V9.3H18.2222M15.5556 3V4.8H8.44444V3H6.66667V4.8H5.77778C4.79111 4.8 4 5.601 4 6.6V19.2C4 19.6774 4.1873 20.1352 4.5207 20.4728C4.8541 20.8104 5.30628 21 5.77778 21H18.2222C18.6937 21 19.1459 20.8104 19.4793 20.4728C19.8127 20.1352 20 19.6774 20 19.2V6.6C20 5.601 19.2 4.8 18.2222 4.8H17.3333V3M16.4444 12.9H12V17.4H16.4444V12.9Z" fill="currentColor" />
</symbol><symbol viewBox="0 0 24 24" fill="none" id="check">
<path d="M19 5V19H5V5H19ZM19 3H5C3.9 3 3 3.9 3 5V19C3 20.1 3.9 21 5 21H19C20.1 21 21 20.1 21 19V5C21 3.9 20.1 3 19 3Z" fill="currentColor" />
</symbol><symbol viewBox="0 0 24 24" fill="none" id="check_active">
<path d="M19 3H5C3.89 3 3 3.9 3 5V19C3 20.1 3.89 21 5 21H19C20.11 21 21 20.1 21 19V5C21 3.9 20.11 3 19 3ZM10 17L5 12L6.41 10.59L10 14.17L17.59 6.58L19 8L10 17Z" fill="currentColor" />
</symbol><symbol viewBox="0 0 24 24" fill="none" id="clear">
<path d="M12 2C6.47 2 2 6.47 2 12C2 17.53 6.47 22 12 22C17.53 22 22 17.53 22 12C22 6.47 17.53 2 12 2ZM17 15.59L15.59 17L12 13.41L8.41 17L7 15.59L10.59 12L7 8.41L8.41 7L12 10.59L15.59 7L17 8.41L13.41 12L17 15.59Z" fill="currentColor" />
</symbol><symbol viewBox="0 0 24 24" fill="none" id="done">
<path d="M9.00002 16.2001L4.80002 12.0001L3.40002 13.4001L9.00002 19.0001L21 7.0001L19.6 5.6001L9.00002 16.2001Z" fill="currentColor" />
</symbol><symbol viewBox="0 0 24 24" fill="none" id="dots">
<path d="M13.5 17C13.5 17.3978 13.342 17.7794 13.0607 18.0607C12.7794 18.342 12.3978 18.5 12 18.5C11.6022 18.5 11.2206 18.342 10.9393 18.0607C10.658 17.7794 10.5 17.3978 10.5 17C10.5 16.6022 10.658 16.2206 10.9393 15.9393C11.2206 15.658 11.6022 15.5 12 15.5C12.3978 15.5 12.7794 15.658 13.0607 15.9393C13.342 16.2206 13.5 16.6022 13.5 17ZM13.5 12C13.5 12.3978 13.342 12.7794 13.0607 13.0607C12.7794 13.342 12.3978 13.5 12 13.5C11.6022 13.5 11.2206 13.342 10.9393 13.0607C10.658 12.7794 10.5 12.3978 10.5 12C10.5 11.6022 10.658 11.2206 10.9393 10.9393C11.2206 10.658 11.6022 10.5 12 10.5C12.3978 10.5 12.7794 10.658 13.0607 10.9393C13.342 11.2206 13.5 11.6022 13.5 12ZM13.5 7C13.5 7.39782 13.342 7.77936 13.0607 8.06066C12.7794 8.34196 12.3978 8.5 12 8.5C11.6022 8.5 11.2206 8.34196 10.9393 8.06066C10.658 7.77936 10.5 7.39782 10.5 7C10.5 6.60218 10.658 6.22064 10.9393 5.93934C11.2206 5.65804 11.6022 5.5 12 5.5C12.3978 5.5 12.7794 5.65804 13.0607 5.93934C13.342 6.22064 13.5 6.60218 13.5 7Z" fill="#1C1C1C" />
</symbol><symbol viewBox="0 0 24 24" fill="none" id="drop_down_2">
<path d="M13.061 12.8889L8.11096 17.8389L9.52496 19.2529L15.889 12.8889L9.52496 6.52493L8.11096 7.93893L13.061 12.8889Z" fill="#1C1C1C" />
</symbol><symbol viewBox="0 0 24 24" fill="none" id="drop_down_4">
<path d="M10.939 12.8889L15.889 7.9389L14.475 6.5249L8.11104 12.8889L14.475 19.2529L15.889 17.8389L10.939 12.8889Z" fill="#1C1C1C" />
</symbol><symbol viewBox="0 0 4 14" fill="none" id="ellipsis">
<path d="M3.5 12C3.5 12.3978 3.34196 12.7794 3.06066 13.0607C2.77936 13.342 2.39782 13.5 2 13.5C1.60218 13.5 1.22064 13.342 0.93934 13.0607C0.658035 12.7794 0.5 12.3978 0.5 12C0.5 11.6022 0.658035 11.2206 0.93934 10.9393C1.22064 10.658 1.60218 10.5 2 10.5C2.39782 10.5 2.77936 10.658 3.06066 10.9393C3.34196 11.2206 3.5 11.6022 3.5 12ZM3.5 7C3.5 7.39782 3.34196 7.77936 3.06066 8.06066C2.77936 8.34196 2.39782 8.5 2 8.5C1.60218 8.5 1.22064 8.34196 0.93934 8.06066C0.658035 7.77936 0.5 7.39782 0.5 7C0.5 6.60218 0.658035 6.22064 0.93934 5.93934C1.22064 5.65804 1.60218 5.5 2 5.5C2.39782 5.5 2.77936 5.65804 3.06066 5.93934C3.34196 6.22064 3.5 6.60218 3.5 7ZM3.5 2C3.5 2.39782 3.34196 2.77936 3.06066 3.06066C2.77936 3.34196 2.39782 3.5 2 3.5C1.60218 3.5 1.22064 3.34196 0.93934 3.06066C0.658035 2.77936 0.5 2.39782 0.5 2C0.5 1.60218 0.658035 1.22064 0.93934 0.93934C1.22064 0.658035 1.60218 0.5 2 0.5C2.39782 0.5 2.77936 0.658035 3.06066 0.93934C3.34196 1.22064 3.5 1.60218 3.5 2Z" fill="#1C1C1C" />
</symbol><symbol viewBox="0 0 24 24" fill="none" id="filter">
<path d="M7.00006 6H17.0001L11.9901 12.3L7.00006 6ZM4.25006 5.61C6.27006 8.2 10.0001 13 10.0001 13V19C10.0001 19.55 10.4501 20 11.0001 20H13.0001C13.5501 20 14.0001 19.55 14.0001 19V13C14.0001 13 17.7201 8.2 19.7401 5.61C20.2501 4.95 19.7801 4 18.9501 4H5.04006C4.21006 4 3.74006 4.95 4.25006 5.61Z" fill="#1C1C1C" />
</symbol><symbol viewBox="0 0 40 40" fill="none" id="preloader">
<path fill-rule="evenodd" clip-rule="evenodd" d="M20 40C31.0457 40 40 31.0457 40 20C40 8.9543 31.0457 0 20 0C8.9543 0 0 8.9543 0 20C0 31.0457 8.9543 40 20 40ZM20 36C28.8366 36 36 28.8366 36 20C36 11.1634 28.8366 4 20 4C11.1634 4 4 11.1634 4 20C4 28.8366 11.1634 36 20 36Z" fill="#DCDCDE" />
<path fill-rule="evenodd" clip-rule="evenodd" d="M38 20C39.1046 20 40.0105 19.102 39.9015 18.0028C38.9645 8.55175 31.4483 1.03553 21.9972 0.0985064C20.898 -0.0104713 20 0.895464 20 2.00003C20 3.1046 20.8999 3.98692 21.996 4.12333C29.2367 5.02438 34.9757 10.7634 35.8767 18.004C36.0131 19.1001 36.8954 20 38 20Z" fill="#1F75CB" />
</symbol><symbol viewBox="0 0 24 24" fill="none" id="search">
<path d="M17.7832 16.3911L22 20.6069L20.6069 22L16.3911 17.7832C14.8224 19.0407 12.8713 19.7246 10.8609 19.7218C5.96968 19.7218 2 15.7521 2 10.8609C2 5.96968 5.96968 2 10.8609 2C15.7521 2 19.7218 5.96968 19.7218 10.8609C19.7246 12.8713 19.0407 14.8224 17.7832 16.3911ZM15.8082 15.6605C17.0577 14.3756 17.7555 12.6532 17.7527 10.8609C17.7527 7.05267 14.6681 3.96909 10.8609 3.96909C7.05267 3.96909 3.96909 7.05267 3.96909 10.8609C3.96909 14.6681 7.05267 17.7527 10.8609 17.7527C12.6532 17.7555 14.3756 17.0577 15.6605 15.8082L15.8082 15.6605Z" fill="currentColor" />
</symbol><symbol viewBox="0 0 24 24" fill="none" id="send">
<path d="M2 21L23 12L2 3V10L17 12L2 14V21Z" fill="currentColor" />
</symbol><symbol viewBox="0 0 24 24" fill="none" id="sort-up">
<path d="M13 7.828L13 20H11L11 7.828L5.63595 13.192L4.22195 11.778L12 4L19.778 11.778L18.364 13.192L13 7.828Z" fill="#040614" />
</symbol><symbol viewBox="0 0 24 24" fill="none" id="vector">
<path d="M12 13.95L7.04999 9L5.63599 10.414L12 16.778L18.364 10.414L16.95 9L12 13.95Z" fill="currentColor" />
</symbol></defs></svg>